<?xml version="1.0" encoding="UTF-8" standalone="no"?>
<!-- Created with Inkscape (http://www.inkscape.org/) -->

<svg
   xmlns:dc="http://purl.org/dc/elements/1.1/"
   xmlns:cc="http://creativecommons.org/ns#"
   xmlns:rdf="http://www.w3.org/1999/02/22-rdf-syntax-ns#"
   xmlns:svg="http://www.w3.org/2000/svg"
   xmlns="http://www.w3.org/2000/svg"
   version="1.1"
   width="1200"
   height="800"
   id="svg8978">
  <metadata
     id="metadata8988">
    <rdf:RDF>
      <cc:Work
         rdf:about="">
        <dc:format>image/svg+xml</dc:format>
        <dc:type
           rdf:resource="http://purl.org/dc/dcmitype/StillImage" />
        <dc:title></dc:title>
      </cc:Work>
    </rdf:RDF>
  </metadata>
  <defs
     id="defs8986" />
  <rect
     width="1200"
     height="800"
     x="0"
     y="0"
     id="rect8980"
     style="fill:#005bbb" />
  <rect
     width="1200"
     height="400"
     x="0"
     y="400"
     id="rect8982"
     style="fill:#ffd500" />
  <path
     d="m 435,170 0,347.55556 c 0.0258,23.49974 13.76018,45.92952 36.81884,56.0625 L 600,630 728.18116,573.61806 C 751.2398,563.48508 764.97414,541.0553 765,517.55556 L 765,170 435,170 z"
     id="path2839"
     style="fill:#ffd500;fill-opacity:1;stroke:#000000;stroke-width:2;stroke-miterlimit:4;stroke-opacity:1;stroke-dasharray:none" />
  <path
     d="M 440,175.00001 440,515 c 0.0252,22.98888 13.34322,44.93106 35.70312,54.84376 L 600,625 724.29688,569.84376 C 746.65678,559.93106 759.97492,537.98888 760,515 l 0,-339.99999 -320,0 z"
     id="path7710"
     style="fill:#005bbb" />
  <path
     d="m 600,200 c -9.32028,10.57656 -15,24.42126 -15,39.61722 0.55232,33.36574 4.6446,66.66376 5,100.0195 0.73986,31.08682 -8.5845,60.28476 -19.92188,88.7673 -3.77774,7.8708 -7.86416,15.57454 -11.95312,23.2858 l -12.03126,-2.42246 c -10.82574,-2.16468 -17.8675,-12.69224 -15.70312,-23.5201 1.89386,-9.47434 10.23132,-16.05338 19.53126,-16.09688 l 4.375,0.46884 -9.76564,-81.5784 C 541.3393,292.21348 522.60116,260.34876 495,239.61722 c -4.74316,-3.5627 -9.76876,-6.81982 -15,-9.68938 l 0,289.74398 66.875,0 c 5.00032,27.14982 19.93944,50.80216 40.93748,67.04434 4.99472,3.44316 9.17846,7.9843 12.18752,13.28384 3.00906,-5.29954 7.1928,-9.84068 12.1875,-13.28384 20.99806,-16.24218 35.9372,-39.89452 40.9375,-67.04434 l 66.875,0 0,-289.74398 c -5.23124,2.86956 -10.25684,6.12668 -15,9.68938 -27.60116,20.73154 -46.3393,52.59626 -49.53124,88.9236 l -9.76564,81.5784 4.375,-0.46884 c 9.29994,0.0436 17.63742,6.62254 19.53126,16.09688 2.16438,10.82786 -4.87736,21.35542 -15.70312,23.5201 l -12.03126,2.42246 c -4.08894,-7.71126 -8.17538,-15.415 -11.95312,-23.2858 C 618.5845,399.92148 609.26014,370.72354 610,339.63672 c 0.3554,-33.35574 4.44768,-66.65376 4.99998,-100.0195 0,-15.19596 -5.6797,-29.04066 -14.99998,-39.61722 z m -100,71.65472 c 12.9427,15.19272 21.62884,34.12514 24.21876,54.93246 l 8.04686,67.27888 c -10.2464,5.10198 -18.01414,14.46206 -20.9375,25.78626 l -11.32812,0 0,-147.9976 z m 200,0 0,147.9976 -11.32812,0 c -2.92334,-11.3242 -10.6911,-20.68428 -20.9375,-25.78626 l 8.04688,-67.27888 C 678.37116,305.77986 687.0573,286.84744 700,271.65472 z M 600,406.91534 c 5.3724,17.57518 12.76378,34.26394 21.95312,49.77546 C 613.2126,459.34656 605.6055,464.51232 600,471.45918 594.39448,464.51232 586.7874,459.34656 578.04688,456.6908 587.2362,441.17928 594.6276,424.49052 600,406.91534 z m -100,32.74088 11.32812,0 c 3.57166,13.8052 14.34756,24.71308 28.04688,28.52106 l 9.60936,2.18792 C 546.41132,479.69478 545,489.52444 545,499.66792 l -45,0 0,-60.0117 z m 188.67188,0 11.32812,0 0,60.0117 -45,0 c 0,-10.14348 -1.41132,-19.97314 -3.98436,-29.30272 l 9.60936,-2.18792 c 13.69932,-3.80798 24.47524,-14.71586 28.04688,-28.52106 z M 568.51562,474.9756 C 580.6481,476.6907 590,487.06222 590,499.66792 l -25,0 c 0,-8.57492 1.26998,-16.83852 3.51562,-24.69232 z m 62.96876,0 c 2.24564,7.8538 3.51564,16.1174 3.51564,24.69232 l -25.00002,0 c 0,-12.6057 9.3519,-22.97722 21.48438,-24.69232 z m -64.21876,44.69622 22.73438,0 0,42.11748 c -11.03318,-11.53652 -19.04802,-26.02258 -22.73438,-42.11748 z m 42.73438,0 22.73438,0 C 629.04804,535.76672 621.03316,550.25278 610,561.7893 l 0,-42.11748 z"
     id="path7306"
     style="fill:#ffd500" />
</svg>
